<svg width="35" height="35" viewBox="0 0 35 35" fill="none" xmlns="http://www.w3.org/2000/svg">
<path fill-rule="evenodd" clip-rule="evenodd" d="M11.4543 2.68621L11.2174 2.6048L11.2173 2.60479C10.9803 2.52339 10.7434 2.442 10.5854 2.52339L8.6895 1.95361L10.5064 1.1396C10.9804 0.8954 11.4543 0.732589 11.9283 0.569788L12.1653 0.488383L12.4023 0.569788L13.1132 0.814005C15.4041 1.46521 17.774 1.30241 20.1438 0.407002C20.2623 0.366302 20.3808 0.305247 20.4993 0.244191C20.6178 0.183136 20.7363 0.122081 20.8548 0.0813806L21.0918 0H21.3288C21.8817 0.0814005 22.3557 0.244201 22.8297 0.407002L24.4886 0.976791L22.0397 2.1978C20.0649 3.0118 18.09 3.50021 16.0361 3.50021C14.0612 3.50021 12.4813 3.09321 11.4543 2.68621ZM5.95392 7.6668L5.95393 7.66679L5.954 7.66677C6.05183 7.63423 6.14781 7.60231 6.24075 7.57038C8.37363 7.00058 10.6645 7.08198 12.9554 7.97739C14.4563 8.54719 15.9572 8.79139 17.6161 8.79139C20.9339 8.79139 24.2517 7.57039 27.3325 5.20978L28.5174 4.23296L28.9124 3.90736L28.2015 3.33755C27.9645 3.09335 27.6485 2.84916 27.3325 2.68636L26.8585 2.36076L26.4636 2.68636C26.3846 2.72706 26.3253 2.78811 26.2661 2.84915C26.2068 2.9102 26.1476 2.97125 26.0686 3.01195C21.8818 6.26797 17.6951 7.16339 13.7453 5.61678C10.9015 4.55857 8.05763 4.31437 5.2138 5.20978C4.97681 5.29118 4.73982 5.37257 4.42384 5.45397L4.26587 5.53537L4.02886 5.77956C4.02886 5.82988 3.99869 5.8491 3.95699 5.87566C3.93123 5.89207 3.90106 5.91129 3.87089 5.94238C3.7129 6.18658 3.53515 6.41043 3.35741 6.63428C3.17967 6.85814 3.00192 7.08199 2.84393 7.32619L1.34303 9.6868L3.79189 8.38439C4.10478 8.38439 4.36809 8.28223 4.58184 8.1993C4.63791 8.17755 4.69057 8.15711 4.73982 8.1402C5.12082 7.9439 5.55289 7.80019 5.95392 7.6668ZM7.97854 12.8613C5.76667 13.5125 3.7128 14.7335 1.89591 16.6871C1.73395 16.7984 1.60888 16.9476 1.4955 17.083C1.44297 17.1457 1.39295 17.2054 1.34293 17.2569L0 18.7221L0.0790003 16.6871C0.119907 16.4342 0.139633 16.1594 0.160115 15.8742C0.179186 15.6086 0.198912 15.3338 0.237001 15.0591V14.8149L0.394977 14.6521L0.789954 14.2451L2.44886 12.8613C4.02877 11.8031 5.60869 10.9891 7.26759 10.5007C9.87444 9.76806 12.7183 9.93087 15.4831 10.9891C21.3288 13.2683 26.4635 9.93085 29.7813 6.67483L30.0973 6.34923L30.6502 5.77942L31.1242 6.43064C31.2135 6.55324 31.2915 6.67585 31.3668 6.7941C31.4914 6.98991 31.6084 7.1738 31.7562 7.32605L32.0722 7.81443L31.6772 8.14005L30.6502 9.19825C27.9644 11.5589 21.8027 15.9545 14.6932 13.2683C12.4023 12.3729 10.1114 12.2915 7.97854 12.8613ZM9.55835 18.1524C11.6912 17.5826 13.9821 17.664 16.273 18.5594C18.8008 19.5362 25.2784 20.92 32.546 14.1638L33.731 12.9427L33.81 12.8613L34.1259 12.5357L33.9679 12.1287C33.8889 11.8032 33.731 11.3962 33.573 10.9893L33.573 10.9891L33.178 9.84951L32.388 10.6635C32.337 10.7686 32.2531 10.8398 32.1574 10.9209C32.105 10.9654 32.049 11.0128 31.993 11.0705C28.5172 14.7335 23.1456 18.478 16.9839 16.1988C14.2191 15.1406 11.3752 14.9778 8.76839 15.7104C6.24054 16.443 4.02866 17.8268 1.97478 19.7804V19.699L0.789851 21.0014C0.789851 21.0517 0.75968 21.0709 0.717981 21.0975C0.692214 21.1139 0.662045 21.1331 0.631875 21.1642L0.394874 21.4084L0.473875 21.734C0.513372 21.9375 0.572617 22.141 0.631862 22.3445C0.691108 22.548 0.750354 22.7515 0.789851 22.955L1.26383 24.2574L2.05378 23.1992C2.09328 23.1178 2.15253 23.0568 2.21177 22.9957C2.27102 22.9347 2.33026 22.8736 2.36976 22.7922L2.50705 22.6641C4.15446 21.1266 6.40796 19.0233 9.55835 18.1524ZM20.3807 26.9435C17.6159 25.8853 14.7721 25.7225 12.1652 26.4552C10.3483 26.9436 8.61041 27.9204 7.0305 29.1414L5.92455 30.1182L5.60857 30.4438L6.31953 31.095C6.36835 31.095 6.387 31.1261 6.41278 31.169C6.4287 31.1956 6.44735 31.2267 6.47753 31.2578C6.59318 31.3769 6.70883 31.4525 6.85547 31.5483L6.85549 31.5483L6.85594 31.5486C6.9095 31.5836 6.96718 31.6213 7.0305 31.6648L7.50446 31.9904L7.97844 31.5834C8.05743 31.502 8.21542 31.3392 8.37341 31.2578C9.79533 30.0368 11.3752 29.2228 13.0341 28.8158C15.167 28.246 17.4579 28.3274 19.7487 29.2228C21.6446 29.9554 25.5154 30.8508 30.1762 28.8158L30.3342 28.7344L30.5711 28.4902C30.5711 28.4399 30.6013 28.4206 30.643 28.3941C30.6688 28.3777 30.699 28.3584 30.7291 28.3274C31.1241 27.839 31.5191 27.3506 31.8351 26.7808L33.415 24.2573L30.8871 25.7225C27.1743 27.8389 23.7775 28.2459 20.3807 26.9435ZM22.6712 32.4788C22.5527 32.4381 22.4539 32.3974 22.3552 32.3567C22.2564 32.316 22.1577 32.2753 22.0392 32.2346C19.2744 31.1764 16.4305 31.0136 13.8237 31.7462L13.8235 31.7462C13.2706 31.909 12.7177 32.0718 12.1648 32.316L10.2689 33.2114L9.79492 33.4556L11.3748 34.0254L12.7967 34.5138L13.0337 34.5952L13.2707 34.5138C13.3497 34.4867 13.4287 34.4505 13.5077 34.4143C13.6657 34.3419 13.8237 34.2696 13.9817 34.2696C14.1397 34.2696 14.2977 34.1882 14.4556 34.1068C16.3515 33.6184 18.4054 33.6184 20.6173 34.351C20.7358 34.3917 20.8345 34.4324 20.9333 34.4731C21.032 34.5138 21.1308 34.5545 21.2493 34.5952L21.6442 34.758L21.8812 34.6766C21.9653 34.6518 22.0513 34.627 22.1382 34.602C22.6228 34.4624 23.1383 34.3138 23.5401 34.1068L25.752 33.2928L23.4611 32.723C23.3426 32.6823 23.2044 32.6416 23.0662 32.6009C22.9279 32.5602 22.7897 32.5195 22.6712 32.4788ZM33.573 16.8499L34.758 15.6289L34.679 17.5012C34.679 17.7454 34.6592 18.0099 34.6395 18.2745C34.6197 18.539 34.6 18.8036 34.6 19.0478V19.292L34.363 19.5362C34.284 19.6176 34.205 19.6786 34.126 19.7397C34.047 19.8007 33.968 19.8618 33.889 19.9432C31.2032 22.3038 27.5694 24.4202 23.9356 24.8272C21.8817 25.0714 19.8278 24.8272 17.853 24.0946C15.5621 23.1992 13.2712 23.1178 11.1383 23.6876C8.76848 24.3388 6.7146 25.6412 4.81871 27.7576L4.50273 28.0832L3.94976 28.8158L3.4758 28.0832C3.31781 27.7576 3.15981 27.5134 2.92283 27.1878L2.60685 26.6994L2.92283 26.2924L3.94976 25.1528C5.92464 23.1992 8.13653 21.8968 10.5854 21.1642C13.1922 20.4316 16.0361 20.5944 18.8009 21.6526C24.6466 23.9318 29.8603 20.513 33.0991 17.3383L33.573 16.8499Z" fill="white"/>
</svg>
